# xmcd
#
# Track frame offsets: 
#        150
#        9217
#        30930
#        54672
#        71165
#        86125
#        124435
#        145772
#        155990
#        167175
#        192832
#        217940
#
# Disc length: 3153 seconds
#
# Revision: 0
# Processed by: cddbd v1.5.2PL0 Copyright (c) Steve Scherf et al.
# Submitted via: ExactAudioCopy v0.99pb4
#
DISCID=a80c4f0c
DTITLE=Various Artist - Smokin
DYEAR=1994
DGENRE=Zydeco
TTITLE0=I' wise
TTITLE1=Door poppin
TTITLE2=Zydeco Saturday night
TTITLE3=Those lonely lonely nights
TTITLE4=Non-support
TTITLE5=Nutty
TTITLE6=For brother Danny Barker
TTITLE7=Brother Moses smote the water
TTITLE8=Spiritual
TTITLE9=Voo doo boo
TTITLE10=Salty papa blues
TTITLE11=Been and gone
EXTD=
EXTT0=
EXTT1=
EXTT2=
EXTT3=
EXTT4=
EXTT5=
EXTT6=
EXTT7=
EXTT8=
EXTT9=
EXTT10=
EXTT11=
PLAYORDER=
